<?xml version="1.0" standalone="no"?><!DOCTYPE svg PUBLIC "-//W3C//DTD SVG 1.1//EN" "http://www.w3.org/Graphics/SVG/1.1/DTD/svg11.dtd"><svg t="1788231214577" class="icon" viewBox="0 0 1024 1024" version="1.1" xmlns="http://www.w3.org/2000/svg" p-id="1980" width="200" height="200" xmlns:xlink="http://www.w3.org/1999/xlink"><path d="M771.853246 828.929445l-13.48636-24.805268c-28.899341-52.982126-84.530574-85.975541-144.737535-85.975541-40.699906 0-79.714017 14.931326-110.058326 42.144873l-4.816557 4.334901-4.816556-4.334901c-30.344309-27.213547-69.35842-42.144873-110.058326-42.144873-59.24365 0-114.152399 32.030103-143.533396 83.567262l-13.486359 23.841957V262.502352l0.963311-1.685795c31.789276-56.112888 91.514581-90.792098 156.056444-90.792098 42.144873 0 82.603951 14.690499 114.874882 41.663217 32.270931-26.972719 72.730009-41.663217 114.874883-41.663217 65.746002 0 125.952963 35.883349 157.501411 93.682032l0.963311 1.685795v563.537159z m-158.464723-125.471308c57.317027 0 110.299153 27.213547 144.015052 72.489182V268.763876c-29.140169-52.259643-84.048918-84.530574-144.015052-84.530574-40.699906 0-79.714017 14.931326-110.058325 42.144873l-4.816557 4.334901-4.816557-4.334901c-30.344309-27.213547-69.35842-42.144873-110.058326-42.144873-58.521167 0-112.94826 31.30762-142.570084 81.881468v507.665098c33.715898-44.071496 86.216369-70.562559 142.570084-70.562558 42.144873 0 82.603951 14.690499 114.874883 41.663217 32.270931-26.731891 72.730009-41.422389 114.874882-41.42239z" fill="#1354c1" p-id="1981"></path><path d="M294.0508 345.828786l-5.057385-5.057384c21.19285-21.674506 49.369708-33.475071 79.714017-33.475071 29.380997 0 57.076199 11.318909 78.028222 31.789276l-5.057385 5.057385c-19.507056-19.266228-45.516463-29.621825-72.970837-29.621825-28.176858 0-54.667921 11.318909-74.656632 31.307619zM294.0508 422.652869l-5.057385-5.057385c21.19285-21.674506 49.369708-33.475071 79.714017-33.47507 29.380997 0 57.076199 11.318909 78.028222 31.789276l-5.057385 5.057384c-19.507056-19.266228-45.516463-29.621825-72.970837-29.621825-28.176858 0-54.667921 11.078081-74.656632 31.30762zM294.0508 499.476952l-5.057385-5.057385c21.19285-21.674506 49.369708-33.475071 79.714017-33.47507 29.380997 0 57.076199 11.318909 78.028222 31.789275l-5.057385 5.057385c-19.507056-19.266228-45.516463-29.621825-72.970837-29.621825-28.176858 0-54.667921 11.078081-74.656632 31.30762zM294.0508 576.060207l-5.057385-5.057385c21.19285-21.674506 49.369708-33.475071 79.714017-33.47507 29.380997 0 57.076199 11.318909 78.028222 31.789275l-5.057385 5.057385c-19.507056-19.266228-45.516463-29.621825-72.970837-29.621825-28.176858 0.240828-54.667921 11.318909-74.656632 31.30762z" fill="#1354c1" p-id="1982"></path><path d="M539.695202 345.828786l-5.057385-5.057384c21.19285-21.674506 49.369708-33.475071 79.714017-33.475071 29.380997 0 57.076199 11.318909 78.028222 31.789276l-5.057384 5.057385c-19.507056-19.266228-45.516463-29.621825-72.970838-29.621825-28.417686 0-54.908749 11.318909-74.656632 31.307619zM539.695202 422.652869l-5.057385-5.057385c21.19285-21.674506 49.369708-33.475071 79.714017-33.47507 29.380997 0 57.076199 11.318909 78.028222 31.789276l-5.057384 5.057384c-19.507056-19.266228-45.516463-29.621825-72.970838-29.621825-28.417686 0-54.908749 11.078081-74.656632 31.30762zM539.695202 499.476952l-5.057385-5.057385c21.19285-21.674506 49.369708-33.475071 79.714017-33.47507 29.380997 0 57.076199 11.318909 78.028222 31.789275l-5.057384 5.057385c-19.507056-19.266228-45.516463-29.621825-72.970838-29.621825-28.417686 0-54.908749 11.078081-74.656632 31.30762zM539.695202 576.060207l-5.057385-5.057385c21.19285-21.674506 49.369708-33.475071 79.714017-33.47507 29.380997 0 57.076199 11.318909 78.028222 31.789275l-5.057384 5.057385c-19.507056-19.266228-45.516463-29.621825-72.970838-29.621825-28.417686 0.240828-54.908749 11.318909-74.656632 31.30762z" fill="#1354c1" p-id="1983"></path></svg>